<svg width="142" height="30" viewBox="0 0 142 30" fill="none" xmlns="http://www.w3.org/2000/svg">
<path d="M128.443 2.14844V7.7207C128.443 8.69336 128.408 9.61914 128.338 10.498C128.279 11.377 128.232 11.998 128.197 12.3613H128.479C128.9 11.6816 129.398 11.1309 129.973 10.709C130.559 10.2871 131.203 9.97656 131.906 9.77734C132.609 9.57812 133.365 9.47852 134.174 9.47852C135.592 9.47852 136.828 9.73047 137.883 10.2344C138.938 10.7266 139.758 11.5059 140.344 12.5723C140.93 13.627 141.223 14.998 141.223 16.6855V29.5H135.861V18.0215C135.861 16.6152 135.604 15.5547 135.088 14.8398C134.572 14.125 133.775 13.7676 132.697 13.7676C131.619 13.7676 130.77 14.0195 130.148 14.5234C129.527 15.0156 129.088 15.748 128.83 16.7207C128.572 17.6816 128.443 18.8594 128.443 20.2539V29.5H123.082V2.14844H128.443Z" fill="#FAFAFA"/>
<path d="M115.717 25.5801C116.303 25.5801 116.871 25.5215 117.422 25.4043C117.984 25.2871 118.541 25.1406 119.092 24.9648V28.9551C118.518 29.2129 117.803 29.4238 116.947 29.5879C116.104 29.7637 115.178 29.8516 114.17 29.8516C112.998 29.8516 111.943 29.6641 111.006 29.2891C110.08 28.9023 109.348 28.2402 108.809 27.3027C108.281 26.3535 108.018 25.0352 108.018 23.3477V13.873H105.451V11.6055L108.404 9.8125L109.951 5.66406H113.379V9.84766H118.881V13.873H113.379V23.3477C113.379 24.0977 113.59 24.6602 114.012 25.0352C114.445 25.3984 115.014 25.5801 115.717 25.5801Z" fill="#FAFAFA"/>
<path fill-rule="evenodd" clip-rule="evenodd" d="M101.795 29.5V9.84766H96.4336V29.5H101.795Z" fill="#FAFAFA"/>
<path d="M91.0547 9.47852C91.3242 9.47852 91.6348 9.49609 91.9863 9.53125C92.3496 9.55469 92.6426 9.58984 92.8652 9.63672L92.4609 14.6641C92.2852 14.6055 92.0332 14.5645 91.7051 14.541C91.3887 14.5059 91.1133 14.4883 90.8789 14.4883C90.1875 14.4883 89.5137 14.5762 88.8574 14.752C88.2129 14.9277 87.6328 15.2148 87.1172 15.6133C86.6016 16 86.1914 16.5156 85.8867 17.1602C85.5938 17.793 85.4473 18.5723 85.4473 19.498V29.5H80.0859V9.84766H84.1465L84.9375 13.1523H85.2012C85.5879 12.4844 86.0684 11.875 86.6426 11.3242C87.2285 10.7617 87.8906 10.3164 88.6289 9.98828C89.3789 9.64844 90.1875 9.47852 91.0547 9.47852Z" fill="#FAFAFA"/>
<path d="M66.9199 9.47852C68.7363 9.47852 70.3008 9.83008 71.6133 10.5332C72.9258 11.2246 73.9395 12.2324 74.6543 13.5566C75.3691 14.8809 75.7266 16.498 75.7266 18.4082V21.0098H63.0527C63.1113 22.5215 63.5625 23.7109 64.4062 24.5781C65.2617 25.4336 66.4453 25.8613 67.957 25.8613C69.2109 25.8613 70.3594 25.7324 71.4023 25.4746C72.4453 25.2168 73.5176 24.8301 74.6191 24.3145V28.4629C73.6465 28.9434 72.627 29.2949 71.5605 29.5176C70.5059 29.7402 69.2227 29.8516 67.7109 29.8516C65.7422 29.8516 63.9961 29.4883 62.4727 28.7617C60.9609 28.0352 59.7715 26.9277 58.9043 25.4395C58.0488 23.9512 57.6211 22.0762 57.6211 19.8145C57.6211 17.5176 58.0078 15.6074 58.7812 14.084C59.5664 12.5488 60.6562 11.4004 62.0508 10.6387C63.4453 9.86523 65.0684 9.47852 66.9199 9.47852ZM66.9551 13.293C65.9121 13.293 65.0449 13.627 64.3535 14.2949C63.6738 14.9629 63.2812 16.0117 63.1758 17.4414H70.6992C70.6875 16.6445 70.541 15.9355 70.2598 15.3145C69.9902 14.6934 69.5801 14.2012 69.0293 13.8379C68.4902 13.4746 67.7988 13.293 66.9551 13.293Z" fill="#FAFAFA"/>
<path d="M46.3184 9.47852C48.416 9.47852 50.1035 10.0527 51.3809 11.2012C52.6582 12.3379 53.2969 14.166 53.2969 16.6855V29.5H47.9355V18.0215C47.9355 16.6152 47.6777 15.5547 47.1621 14.8398C46.6582 14.125 45.8613 13.7676 44.7715 13.7676C43.1309 13.7676 42.0117 14.3242 41.4141 15.4375C40.8164 16.5508 40.5176 18.1562 40.5176 20.2539V29.5H35.1562V9.84766H39.252L39.9727 12.3613H40.2715C40.6934 11.6816 41.2148 11.1309 41.8359 10.709C42.4688 10.2871 43.166 9.97656 43.9277 9.77734C44.7012 9.57812 45.498 9.47852 46.3184 9.47852Z" fill="#FAFAFA"/>
<path d="M22.6582 9.47852C24.7559 9.47852 26.4434 10.0527 27.7207 11.2012C28.998 12.3379 29.6367 14.166 29.6367 16.6855V29.5H24.2754V18.0215C24.2754 16.6152 24.0176 15.5547 23.502 14.8398C22.998 14.125 22.2012 13.7676 21.1113 13.7676C19.4707 13.7676 18.3516 14.3242 17.7539 15.4375C17.1562 16.5508 16.8574 18.1562 16.8574 20.2539V29.5H11.4961V9.84766H15.5918L16.3125 12.3613H16.6113C17.0332 11.6816 17.5547 11.1309 18.1758 10.709C18.8086 10.2871 19.5059 9.97656 20.2676 9.77734C21.041 9.57812 21.8379 9.47852 22.6582 9.47852Z" fill="#FAFAFA"/>
<rect x="96.5" y="0.5" width="5" height="5" fill="#F4C430" stroke="#F4C430"/>
<path d="M0 29.5V3.80078H5.44922V29.5H0Z" fill="#FAFAFA"/>
</svg>
